<svg xmlns="http://www.w3.org/2000/svg" id="canvas" viewBox="420.394 374.003 859.758 277.136"><path d="M 490.11,400.65 C 488.43 401.71, 487.66 403.07, 487.16 405.71 C 486.65 408.35, 487.29 409.99, 487.58 413.86 C 487.88 417.73, 488.27 420.28, 488.65 425.06 C 489.03 429.85, 489.18 432.39, 489.47 437.76 C 489.76 443.14, 489.79 446.03, 490.10 451.94 C 490.40 457.86, 490.56 461.08, 490.99 467.34 C 491.42 473.61, 491.70 476.91, 492.25 483.28 C 492.81 489.64, 493.12 492.91, 493.78 499.16 C 494.45 505.42, 494.85 508.61, 495.59 514.53 C 496.33 520.46, 496.75 523.39, 497.48 528.81 C 498.21 534.22, 498.61 536.85, 499.22 541.62 C 499.83 546.39, 500.03 548.72, 500.55 552.64 C 501.08 556.57, 500.86 558.66, 501.85 561.25 C 502.84 563.85, 504.00 564.90, 505.52 565.63 C 507.04 566.36, 508.29 566.13, 509.43 564.89 C 510.58 563.66, 511.29 562.23, 511.25 559.45 C 511.22 556.67, 510.21 554.81, 509.26 550.98 C 508.30 547.16, 507.54 544.97, 506.49 540.33 C 505.44 535.69, 504.97 533.11, 504.02 527.78 C 503.06 522.46, 502.57 519.56, 501.71 513.70 C 500.86 507.85, 500.43 504.70, 499.73 498.51 C 499.03 492.33, 498.74 489.08, 498.23 482.78 C 497.73 476.47, 497.50 473.19, 497.20 466.98 C 496.90 460.77, 496.78 457.60, 496.73 451.74 C 496.68 445.88, 496.77 443.03, 496.94 437.68 C 497.12 432.33, 497.31 429.77, 497.61 424.99 C 497.91 420.22, 498.18 417.71, 498.45 413.82 C 498.73 409.93, 499.55 408.23, 498.97 405.55 C 498.40 402.87, 497.34 401.39, 495.57 400.41 C 493.79 399.43, 491.79 399.59, 490.11 400.65" style="stroke: #ff7a00; fill: #ff7a00; stroke-width: 10"/><path d="M 424.97,398.99 C 425.99 400.33, 426.63 400.59, 428.53 400.93 C 430.44 401.27, 431.41 401.39, 434.49 400.70 C 437.58 400.01, 439.45 398.64, 443.95 397.48 C 448.45 396.33, 451.17 395.94, 456.99 394.92 C 462.81 393.90, 466.18 393.38, 473.05 392.38 C 479.93 391.38, 483.79 390.87, 491.36 389.91 C 498.93 388.96, 503.09 388.46, 510.91 387.60 C 518.74 386.74, 522.86 386.28, 530.48 385.60 C 538.10 384.93, 542.00 384.61, 549.01 384.22 C 556.02 383.83, 559.52 383.67, 565.51 383.64 C 571.51 383.62, 574.32 383.76, 578.97 384.10 C 583.62 384.43, 585.58 385.12, 588.76 385.32 C 591.95 385.52, 593.47 385.94, 594.91 385.10 C 596.36 384.26, 596.99 382.64, 596.00 381.13 C 595.01 379.63, 593.32 378.38, 589.96 377.57 C 586.59 376.76, 584.11 377.04, 579.18 377.09 C 574.25 377.14, 571.42 377.43, 565.32 377.82 C 559.21 378.21, 555.71 378.45, 548.65 379.02 C 541.60 379.60, 537.68 379.96, 530.02 380.69 C 522.37 381.41, 518.24 381.87, 510.39 382.67 C 502.54 383.47, 498.37 383.92, 490.77 384.69 C 483.16 385.46, 479.28 385.89, 472.36 386.51 C 465.44 387.14, 462.10 387.48, 456.17 387.82 C 450.25 388.15, 447.49 388.13, 442.72 388.20 C 437.95 388.26, 435.66 387.73, 432.32 388.15 C 428.98 388.57, 427.80 389.09, 426.02 390.30 C 424.24 391.52, 423.64 392.48, 423.43 394.22 C 423.22 395.96, 423.95 397.65, 424.97 398.99" style="stroke: #ff7a00; fill: #ff7a00; stroke-width: 10"/><path d="M 594.07,459.79 C 592.13 460.49, 590.74 461.97, 589.51 465.05 C 588.27 468.14, 588.37 470.57, 587.90 475.21 C 587.43 479.85, 587.14 483.02, 587.16 488.25 C 587.18 493.48, 587.42 496.17, 588.00 501.37 C 588.58 506.57, 588.93 509.26, 590.08 514.25 C 591.22 519.23, 591.84 521.80, 593.73 526.30 C 595.63 530.80, 596.76 533.06, 599.56 536.73 C 602.36 540.40, 604.07 542.12, 607.73 544.65 C 611.39 547.19, 613.59 548.28, 617.86 549.42 C 622.12 550.56, 624.57 550.72, 629.07 550.35 C 633.57 549.98, 635.95 549.31, 640.36 547.55 C 644.78 545.79, 647.03 544.48, 651.17 541.56 C 655.30 538.64, 657.34 536.80, 661.03 532.94 C 664.73 529.08, 666.49 526.82, 669.64 522.28 C 672.80 517.73, 674.27 515.15, 676.80 510.22 C 679.33 505.29, 680.44 502.63, 682.28 497.61 C 684.13 492.58, 684.85 489.89, 686.04 485.09 C 687.23 480.28, 687.53 477.80, 688.23 473.60 C 688.94 469.40, 690.14 467.23, 689.57 464.09 C 688.99 460.95, 687.62 459.12, 685.36 457.90 C 683.11 456.69, 680.60 456.72, 678.31 458.02 C 676.02 459.32, 674.60 461.06, 673.93 464.40 C 673.25 467.75, 674.27 470.10, 674.94 474.74 C 675.60 479.38, 676.24 482.32, 677.26 487.62 C 678.29 492.91, 678.75 495.83, 680.07 501.20 C 681.40 506.58, 682.13 509.34, 683.87 514.49 C 685.62 519.64, 686.59 522.23, 688.81 526.95 C 691.03 531.68, 692.31 534.06, 694.97 538.11 C 697.63 542.16, 699.34 544.15, 702.11 547.22 C 704.88 550.28, 706.23 552.04, 708.84 553.44 C 711.45 554.85, 713.44 554.78, 715.17 554.23 C 716.90 553.68, 717.55 552.39, 717.49 550.68 C 717.43 548.96, 716.66 547.63, 714.89 545.64 C 713.13 543.64, 711.35 543.13, 708.66 540.70 C 705.97 538.27, 704.09 536.89, 701.44 533.49 C 698.78 530.10, 697.55 528.00, 695.39 523.75 C 693.22 519.49, 692.24 517.04, 690.62 512.21 C 689.00 507.38, 688.31 504.73, 687.30 499.60 C 686.28 494.46, 685.88 491.59, 685.55 486.53 C 685.23 481.47, 685.36 478.55, 685.67 474.30 C 685.97 470.06, 687.33 468.12, 687.08 465.32 C 686.83 462.51, 685.86 461.27, 684.42 460.26 C 682.98 459.26, 681.18 459.34, 679.88 460.29 C 678.57 461.24, 678.00 462.50, 677.88 465.03 C 677.77 467.56, 679.17 469.23, 679.29 472.92 C 679.40 476.61, 679.20 479.03, 678.44 483.48 C 677.67 487.94, 677.05 490.50, 675.46 495.20 C 673.87 499.90, 672.83 502.40, 670.49 506.98 C 668.14 511.57, 666.71 513.98, 663.74 518.10 C 660.77 522.23, 659.06 524.26, 655.64 527.62 C 652.22 530.97, 650.29 532.50, 646.62 534.88 C 642.96 537.26, 640.96 538.22, 637.32 539.52 C 633.67 540.83, 631.83 541.18, 628.39 541.40 C 624.96 541.63, 623.31 541.47, 620.15 540.66 C 617.00 539.85, 615.44 539.18, 612.64 537.36 C 609.83 535.54, 608.45 534.42, 606.12 531.57 C 603.80 528.72, 602.73 526.94, 601.00 523.13 C 599.28 519.32, 598.54 517.02, 597.48 512.52 C 596.43 508.03, 596.07 505.45, 595.72 500.65 C 595.38 495.86, 595.38 493.36, 595.76 488.55 C 596.13 483.75, 596.76 480.80, 597.59 476.64 C 598.41 472.47, 599.56 470.73, 599.88 467.71 C 600.21 464.70, 600.39 463.14, 599.23 461.56 C 598.07 459.97, 596.02 459.09, 594.07 459.79" style="stroke: #ff7a00; fill: #ff7a00; stroke-width: 10"/><path d="M 804.49,483.83 C 805.72 482.04, 805.81 479.98, 805.13 477.26 C 804.45 474.53, 803.52 472.75, 801.11 470.20 C 798.69 467.66, 796.63 466.20, 793.04 464.53 C 789.45 462.86, 787.33 462.46, 783.15 461.86 C 778.97 461.27, 776.69 461.24, 772.16 461.55 C 767.63 461.86, 765.17 462.20, 760.50 463.41 C 755.82 464.63, 753.28 465.48, 748.77 467.62 C 744.25 469.77, 741.88 471.15, 737.91 474.14 C 733.93 477.14, 731.98 478.93, 728.88 482.60 C 725.79 486.26, 724.36 488.38, 722.44 492.46 C 720.52 496.55, 719.71 498.78, 719.27 503.02 C 718.83 507.27, 718.98 509.70, 720.24 513.67 C 721.51 517.64, 722.74 519.77, 725.60 522.88 C 728.45 526.00, 730.50 527.34, 734.52 529.25 C 738.54 531.16, 741.06 531.80, 745.70 532.41 C 750.34 533.03, 752.92 532.87, 757.74 532.32 C 762.56 531.77, 765.08 531.15, 769.79 529.66 C 774.50 528.16, 776.94 527.14, 781.27 524.86 C 785.60 522.58, 787.75 521.06, 791.44 518.26 C 795.13 515.45, 796.85 513.92, 799.72 510.83 C 802.59 507.74, 803.85 506.07, 805.80 502.79 C 807.75 499.51, 809.08 497.56, 809.48 494.42 C 809.88 491.29, 809.40 489.02, 807.80 487.09 C 806.19 485.17, 803.93 484.45, 801.46 484.79 C 799.00 485.14, 796.65 486.26, 795.48 488.80 C 794.32 491.34, 794.94 493.51, 795.64 497.49 C 796.33 501.47, 797.48 503.88, 798.96 508.70 C 800.43 513.51, 801.28 516.24, 802.99 521.57 C 804.70 526.91, 805.62 529.71, 807.50 535.35 C 809.38 540.99, 810.43 543.91, 812.39 549.77 C 814.34 555.62, 815.42 558.72, 817.26 564.62 C 819.10 570.52, 820.09 573.53, 821.58 579.28 C 823.06 585.03, 823.81 587.97, 824.69 593.37 C 825.58 598.78, 825.88 601.51, 826.01 606.29 C 826.13 611.07, 826.00 613.35, 825.31 617.27 C 824.63 621.18, 823.99 622.94, 822.57 625.88 C 821.15 628.81, 820.26 629.90, 818.22 631.92 C 816.18 633.95, 815.09 634.69, 812.36 636.02 C 809.63 637.35, 808.10 637.89, 804.59 638.56 C 801.08 639.23, 799.02 639.44, 794.82 639.36 C 790.61 639.28, 788.18 639.03, 783.55 638.16 C 778.92 637.29, 776.37 636.61, 771.66 635.01 C 766.94 633.41, 764.40 632.41, 759.97 630.18 C 755.54 627.94, 753.27 626.57, 749.51 623.84 C 745.74 621.11, 743.93 619.58, 741.15 616.52 C 738.37 613.47, 737.18 611.80, 735.60 608.56 C 734.02 605.31, 733.52 603.80, 733.26 600.31 C 733.00 596.83, 733.65 594.69, 734.30 591.13 C 734.96 587.57, 736.09 585.63, 736.53 582.51 C 736.98 579.39, 737.47 577.28, 736.52 575.53 C 735.57 573.78, 733.69 572.93, 731.78 573.77 C 729.87 574.61, 728.38 576.52, 726.97 579.72 C 725.57 582.92, 725.25 585.44, 724.77 589.76 C 724.30 594.09, 723.90 596.85, 724.61 601.35 C 725.31 605.86, 726.11 608.18, 728.28 612.29 C 730.44 616.39, 732.05 618.34, 735.42 621.87 C 738.80 625.41, 740.92 626.97, 745.17 629.94 C 749.41 632.91, 751.85 634.31, 756.66 636.74 C 761.46 639.16, 764.13 640.24, 769.18 642.07 C 774.23 643.90, 776.88 644.73, 781.92 645.89 C 786.97 647.06, 789.58 647.55, 794.41 647.89 C 799.25 648.24, 801.68 648.28, 806.10 647.62 C 810.53 646.96, 812.77 646.43, 816.54 644.58 C 820.32 642.74, 822.20 641.42, 824.99 638.37 C 827.78 635.32, 828.90 633.35, 830.51 629.34 C 832.12 625.34, 832.53 623.02, 833.04 618.34 C 833.54 613.65, 833.43 611.15, 833.03 605.93 C 832.64 600.70, 832.18 597.87, 831.08 592.23 C 829.98 586.58, 829.15 583.58, 827.55 577.69 C 825.96 571.81, 824.94 568.78, 823.09 562.81 C 821.24 556.84, 820.17 553.73, 818.31 547.85 C 816.46 541.96, 815.44 539.03, 813.82 533.39 C 812.20 527.74, 811.37 524.94, 810.21 519.63 C 809.05 514.32, 808.49 511.55, 808.04 506.85 C 807.58 502.16, 808.03 499.65, 807.92 496.18 C 807.82 492.70, 808.43 491.29, 807.51 489.48 C 806.59 487.67, 805.04 487.38, 803.32 487.13 C 801.61 486.88, 800.14 487.21, 798.92 488.22 C 797.69 489.24, 797.70 490.25, 797.18 492.23 C 796.67 494.21, 797.24 495.61, 796.34 498.13 C 795.43 500.65, 794.71 502.13, 792.66 504.82 C 790.61 507.50, 789.16 508.99, 786.10 511.54 C 783.04 514.09, 781.13 515.54, 777.38 517.58 C 773.62 519.62, 771.44 520.52, 767.34 521.76 C 763.25 522.99, 760.95 523.43, 756.89 523.75 C 752.84 524.07, 750.69 524.01, 747.07 523.38 C 743.44 522.74, 741.60 522.01, 738.77 520.57 C 735.95 519.12, 734.77 518.15, 732.94 516.15 C 731.11 514.15, 730.48 513.04, 729.62 510.57 C 728.76 508.11, 728.47 506.73, 728.65 503.83 C 728.82 500.93, 729.16 499.26, 730.50 496.08 C 731.84 492.90, 732.88 491.01, 735.35 487.92 C 737.81 484.84, 739.45 483.21, 742.83 480.66 C 746.20 478.10, 748.30 476.89, 752.23 475.15 C 756.16 473.40, 758.45 472.76, 762.49 471.94 C 766.54 471.11, 768.73 470.95, 772.45 471.01 C 776.17 471.06, 778.17 471.39, 781.08 472.21 C 783.99 473.04, 785.06 473.63, 787.01 475.12 C 788.97 476.61, 789.40 478.01, 790.87 479.67 C 792.34 481.33, 792.74 482.12, 794.37 483.42 C 795.99 484.72, 796.97 486.10, 799.00 486.18 C 801.03 486.26, 803.27 485.61, 804.49 483.83" style="stroke: #ff7a00; fill: #ff7a00; stroke-width: 10"/><path d="M 919.79,485.65 C 920.67 483.78, 920.45 482.15, 919.58 479.77 C 918.71 477.38, 917.79 475.87, 915.44 473.71 C 913.08 471.55, 911.15 470.43, 907.81 468.96 C 904.47 467.48, 902.54 467.07, 898.73 466.33 C 894.91 465.59, 892.89 465.35, 888.74 465.26 C 884.59 465.17, 882.36 465.24, 877.96 465.87 C 873.57 466.51, 871.24 467.02, 866.77 468.45 C 862.30 469.87, 859.92 470.79, 855.61 473.01 C 851.31 475.23, 849.09 476.56, 845.26 479.55 C 841.43 482.54, 839.53 484.26, 836.45 487.94 C 833.37 491.63, 831.89 493.74, 829.87 497.96 C 827.85 502.17, 827.03 504.57, 826.34 509.03 C 825.66 513.48, 825.62 515.93, 826.45 520.24 C 827.28 524.54, 828.14 526.83, 830.48 530.56 C 832.82 534.28, 834.55 536.09, 838.17 538.86 C 841.80 541.64, 844.05 542.78, 848.59 544.44 C 853.13 546.10, 855.77 546.67, 860.85 547.17 C 865.94 547.66, 868.76 547.57, 874.00 546.90 C 879.25 546.24, 881.99 545.58, 887.07 543.84 C 892.16 542.10, 894.80 540.93, 899.43 538.19 C 904.07 535.46, 906.30 533.78, 910.25 530.18 C 914.19 526.57, 916.04 524.52, 919.15 520.17 C 922.26 515.83, 923.61 513.42, 925.79 508.47 C 927.96 503.53, 928.77 500.80, 930.03 495.46 C 931.28 490.11, 931.64 487.27, 932.07 481.74 C 932.50 476.20, 932.41 473.31, 932.18 467.78 C 931.95 462.25, 931.61 459.43, 930.93 454.08 C 930.25 448.73, 929.73 446.02, 928.77 441.03 C 927.81 436.03, 927.11 433.56, 926.11 429.11 C 925.12 424.66, 924.81 422.47, 923.80 418.78 C 922.79 415.09, 922.90 412.69, 921.07 410.67 C 919.24 408.65, 917.03 408.25, 914.65 408.69 C 912.27 409.12, 910.22 410.34, 909.18 412.84 C 908.14 415.35, 908.74 417.15, 909.45 421.22 C 910.17 425.29, 911.33 427.95, 912.75 433.19 C 914.17 438.44, 914.99 441.54, 916.54 447.44 C 918.09 453.34, 918.87 456.48, 920.51 462.69 C 922.15 468.90, 922.99 472.20, 924.75 478.48 C 926.51 484.76, 927.37 488.00, 929.30 494.08 C 931.24 500.16, 932.31 503.26, 934.41 508.86 C 936.52 514.46, 937.58 517.17, 939.83 522.07 C 942.08 526.98, 943.32 529.30, 945.66 533.38 C 948.00 537.47, 949.09 539.29, 951.54 542.49 C 953.99 545.70, 955.30 547.67, 957.91 549.41 C 960.51 551.14, 962.38 551.11, 964.57 551.17 C 966.77 551.22, 967.88 550.72, 968.88 549.69 C 969.88 548.67, 969.84 547.31, 969.59 546.04 C 969.33 544.77, 968.63 544.54, 967.61 543.35 C 966.59 542.16, 966.34 541.49, 964.48 540.08 C 962.61 538.67, 960.78 538.46, 958.30 536.29 C 955.83 534.13, 954.58 532.70, 952.10 529.26 C 949.62 525.82, 948.29 523.62, 945.91 519.09 C 943.52 514.56, 942.38 511.97, 940.19 506.60 C 937.99 501.23, 936.90 498.19, 934.95 492.25 C 933.00 486.32, 932.12 483.12, 930.43 476.91 C 928.73 470.70, 927.90 467.40, 926.48 461.21 C 925.05 455.02, 924.35 451.88, 923.30 445.96 C 922.26 440.04, 921.80 436.86, 921.25 431.60 C 920.71 426.35, 920.95 423.52, 920.59 419.70 C 920.22 415.87, 920.62 414.28, 919.42 412.48 C 918.23 410.69, 916.20 410.28, 914.63 410.72 C 913.07 411.16, 911.62 412.45, 911.59 414.69 C 911.56 416.92, 913.15 418.58, 914.49 421.90 C 915.84 425.23, 916.91 427.16, 918.32 431.29 C 919.73 435.42, 920.42 437.83, 921.54 442.58 C 922.67 447.32, 923.20 449.93, 923.94 455.03 C 924.69 460.13, 925.01 462.85, 925.25 468.08 C 925.49 473.31, 925.55 476.04, 925.13 481.19 C 924.72 486.34, 924.34 488.95, 923.17 493.83 C 922.00 498.71, 921.23 501.15, 919.26 505.58 C 917.29 510.01, 916.09 512.13, 913.31 515.98 C 910.53 519.82, 908.88 521.64, 905.37 524.82 C 901.86 528.01, 899.88 529.50, 895.75 531.90 C 891.62 534.29, 889.24 535.33, 884.72 536.80 C 880.20 538.27, 877.72 538.79, 873.13 539.25 C 868.54 539.71, 866.06 539.67, 861.77 539.10 C 857.48 538.53, 855.28 537.87, 851.68 536.40 C 848.08 534.93, 846.42 533.89, 843.75 531.74 C 841.08 529.59, 839.98 528.30, 838.32 525.64 C 836.66 522.98, 836.09 521.52, 835.46 518.45 C 834.83 515.38, 834.73 513.66, 835.17 510.29 C 835.60 506.92, 836.11 504.99, 837.64 501.58 C 839.18 498.18, 840.33 496.35, 842.86 493.26 C 845.40 490.16, 847.02 488.63, 850.33 486.09 C 853.63 483.55, 855.61 482.38, 859.40 480.54 C 863.18 478.70, 865.34 477.94, 869.27 476.88 C 873.19 475.82, 875.26 475.53, 879.02 475.25 C 882.77 474.97, 884.70 475.07, 888.06 475.48 C 891.42 475.89, 893.15 476.30, 895.81 477.29 C 898.48 478.27, 899.43 478.91, 901.39 480.40 C 903.34 481.90, 903.83 483.28, 905.58 484.77 C 907.33 486.27, 908.22 487.02, 910.14 487.88 C 912.06 488.74, 913.26 489.52, 915.19 489.07 C 917.12 488.62, 918.91 487.51, 919.79 485.65" style="stroke: #ff7a00; fill: #ff7a00; stroke-width: 10"/><path d="M 981.29,473.80 C 979.51 474.25, 978.90 475.06, 977.72 476.89 C 976.54 478.73, 975.57 480.01, 975.40 482.97 C 975.22 485.93, 976.10 488.04, 976.85 491.69 C 977.59 495.33, 978.10 497.32, 979.14 501.19 C 980.18 505.06, 980.69 507.14, 982.05 511.05 C 983.42 514.96, 984.16 516.99, 985.98 520.74 C 987.81 524.50, 988.83 526.41, 991.18 529.81 C 993.53 533.22, 994.84 534.91, 997.73 537.78 C 1000.62 540.66, 1002.27 542.06, 1005.63 544.18 C 1009.00 546.31, 1010.87 547.20, 1014.55 548.40 C 1018.23 549.60, 1020.20 550.01, 1024.04 550.20 C 1027.89 550.39, 1029.99 550.31, 1033.78 549.34 C 1037.57 548.38, 1039.55 547.49, 1043.02 545.39 C 1046.48 543.28, 1048.11 541.84, 1051.11 538.83 C 1054.12 535.82, 1055.51 533.99, 1058.04 530.33 C 1060.57 526.67, 1061.72 524.55, 1063.76 520.54 C 1065.81 516.54, 1066.67 514.38, 1068.26 510.31 C 1069.85 506.24, 1070.52 504.15, 1071.72 500.19 C 1072.91 496.22, 1073.48 494.13, 1074.24 490.49 C 1074.99 486.85, 1076.06 484.59, 1075.48 481.98 C 1074.91 479.37, 1073.37 478.17, 1071.37 477.43 C 1069.38 476.69, 1067.42 476.92, 1065.50 478.28 C 1063.59 479.65, 1061.99 481.25, 1061.79 484.24 C 1061.58 487.23, 1063.29 489.25, 1064.49 493.21 C 1065.69 497.18, 1066.47 499.60, 1067.78 504.07 C 1069.09 508.54, 1069.62 510.98, 1071.04 515.56 C 1072.46 520.15, 1073.17 522.54, 1074.90 526.99 C 1076.63 531.45, 1077.53 533.76, 1079.68 537.85 C 1081.83 541.94, 1083.02 543.94, 1085.66 547.45 C 1088.30 550.96, 1089.82 552.64, 1092.87 555.39 C 1095.93 558.14, 1097.79 559.65, 1100.94 561.20 C 1104.09 562.74, 1106.04 563.11, 1108.63 563.09 C 1111.23 563.08, 1112.72 562.36, 1113.91 561.11 C 1115.11 559.87, 1115.13 558.39, 1114.60 556.86 C 1114.06 555.34, 1112.99 554.68, 1111.24 553.49 C 1109.50 552.29, 1108.33 552.03, 1105.87 550.88 C 1103.41 549.74, 1101.60 549.55, 1098.94 547.76 C 1096.28 545.97, 1094.96 544.71, 1092.58 541.93 C 1090.20 539.15, 1089.06 537.43, 1087.05 533.85 C 1085.04 530.27, 1084.12 528.16, 1082.54 524.05 C 1080.96 519.93, 1080.25 517.66, 1079.16 513.28 C 1078.06 508.91, 1077.58 506.56, 1077.07 502.17 C 1076.56 497.78, 1076.65 495.25, 1076.63 491.34 C 1076.61 487.43, 1077.78 485.29, 1076.98 482.63 C 1076.18 479.98, 1074.62 479.06, 1072.63 478.07 C 1070.64 477.07, 1068.96 476.96, 1067.04 477.67 C 1065.12 478.38, 1063.76 479.33, 1063.05 481.63 C 1062.34 483.94, 1063.58 485.93, 1063.49 489.17 C 1063.40 492.42, 1063.34 494.27, 1062.60 497.86 C 1061.87 501.44, 1061.20 503.39, 1059.82 507.09 C 1058.45 510.80, 1057.60 512.82, 1055.73 516.38 C 1053.85 519.93, 1052.72 521.82, 1050.43 524.89 C 1048.15 527.96, 1046.82 529.43, 1044.29 531.74 C 1041.77 534.05, 1040.41 534.99, 1037.80 536.43 C 1035.19 537.86, 1033.90 538.32, 1031.25 538.92 C 1028.60 539.52, 1027.26 539.56, 1024.55 539.44 C 1021.84 539.33, 1020.42 539.12, 1017.70 538.32 C 1014.98 537.53, 1013.58 536.99, 1010.96 535.46 C 1008.35 533.93, 1006.99 532.92, 1004.62 530.68 C 1002.25 528.45, 1001.10 527.11, 999.11 524.29 C 997.13 521.47, 996.21 519.83, 994.70 516.59 C 993.18 513.34, 992.50 511.54, 991.53 508.05 C 990.56 504.56, 990.22 502.63, 989.84 499.13 C 989.47 495.63, 989.51 493.72, 989.65 490.54 C 989.78 487.35, 990.61 485.67, 990.52 483.20 C 990.42 480.73, 989.97 479.90, 989.19 478.18 C 988.42 476.46, 988.21 475.47, 986.63 474.60 C 985.05 473.72, 983.07 473.34, 981.29 473.80" style="stroke: #ff7a00; fill: #ff7a00; stroke-width: 10"/><path d="M 1193.76,497.67 C 1194.95 495.89, 1194.87 493.92, 1194.26 491.33 C 1193.65 488.74, 1192.83 487.20, 1190.70 484.71 C 1188.58 482.22, 1186.81 480.66, 1183.63 478.88 C 1180.44 477.11, 1178.48 476.68, 1174.79 475.84 C 1171.11 475.00, 1169.17 474.82, 1165.20 474.69 C 1161.23 474.56, 1159.09 474.55, 1154.95 475.18 C 1150.80 475.81, 1148.57 476.34, 1144.48 477.84 C 1140.39 479.34, 1138.29 480.35, 1134.49 482.67 C 1130.69 485.00, 1128.77 486.37, 1125.47 489.45 C 1122.18 492.53, 1120.54 494.34, 1118.02 498.07 C 1115.51 501.81, 1114.37 503.97, 1112.90 508.14 C 1111.43 512.30, 1110.87 514.60, 1110.68 518.90 C 1110.49 523.20, 1110.70 525.57, 1111.95 529.63 C 1113.20 533.68, 1114.30 535.79, 1116.94 539.17 C 1119.57 542.56, 1121.38 544.13, 1125.13 546.53 C 1128.87 548.94, 1131.15 549.90, 1135.65 551.20 C 1140.15 552.51, 1142.78 552.88, 1147.62 553.06 C 1152.45 553.25, 1155.06 553.02, 1159.82 552.13 C 1164.57 551.25, 1166.98 550.46, 1171.37 548.65 C 1175.77 546.84, 1178.03 545.72, 1181.79 543.08 C 1185.55 540.43, 1187.26 538.73, 1190.17 535.43 C 1193.08 532.12, 1194.36 530.28, 1196.35 526.56 C 1198.34 522.84, 1199.09 520.74, 1200.14 516.84 C 1201.18 512.93, 1201.27 510.87, 1201.57 507.05 C 1201.88 503.22, 1202.21 501.13, 1201.65 497.70 C 1201.08 494.27, 1200.68 491.92, 1198.75 489.91 C 1196.82 487.89, 1194.57 487.36, 1192.01 487.63 C 1189.45 487.90, 1187.46 489.02, 1185.95 491.26 C 1184.45 493.50, 1184.06 495.41, 1184.48 498.84 C 1184.89 502.28, 1186.45 504.36, 1188.01 508.43 C 1189.57 512.51, 1190.49 514.85, 1192.29 519.22 C 1194.10 523.59, 1195.02 525.90, 1197.04 530.28 C 1199.05 534.66, 1200.07 536.98, 1202.37 541.13 C 1204.66 545.27, 1205.94 547.35, 1208.51 551.01 C 1211.08 554.67, 1212.44 556.39, 1215.20 559.41 C 1217.96 562.43, 1219.47 564.31, 1222.32 566.12 C 1225.17 567.93, 1227.04 568.28, 1229.44 568.48 C 1231.84 568.68, 1233.14 568.14, 1234.32 567.11 C 1235.51 566.08, 1235.63 564.77, 1235.37 563.34 C 1235.10 561.91, 1234.35 561.33, 1232.99 559.96 C 1231.64 558.59, 1230.82 557.99, 1228.59 556.49 C 1226.36 555.00, 1224.45 554.61, 1221.82 552.48 C 1219.20 550.35, 1217.90 548.93, 1215.45 545.85 C 1213.00 542.77, 1211.74 540.86, 1209.59 537.08 C 1207.43 533.29, 1206.41 531.09, 1204.67 526.93 C 1202.94 522.76, 1202.08 520.52, 1200.92 516.25 C 1199.75 511.99, 1199.37 509.56, 1198.85 505.62 C 1198.33 501.67, 1198.96 499.35, 1198.32 496.52 C 1197.68 493.70, 1197.08 492.65, 1195.65 491.50 C 1194.23 490.35, 1192.71 490.23, 1191.20 490.77 C 1189.68 491.32, 1188.45 492.35, 1188.08 494.20 C 1187.71 496.05, 1188.77 497.48, 1189.33 500.02 C 1189.90 502.57, 1190.67 504.01, 1190.89 506.92 C 1191.11 509.83, 1191.03 511.49, 1190.44 514.57 C 1189.86 517.65, 1189.38 519.29, 1187.96 522.30 C 1186.54 525.31, 1185.58 526.87, 1183.34 529.62 C 1181.10 532.37, 1179.79 533.82, 1176.75 536.07 C 1173.71 538.32, 1171.82 539.32, 1168.14 540.87 C 1164.45 542.42, 1162.33 543.12, 1158.31 543.83 C 1154.29 544.54, 1152.05 544.66, 1148.04 544.41 C 1144.04 544.16, 1141.83 543.72, 1138.28 542.57 C 1134.73 541.42, 1133.04 540.54, 1130.30 538.68 C 1127.57 536.82, 1126.42 535.64, 1124.60 533.25 C 1122.78 530.87, 1122.10 529.54, 1121.21 526.75 C 1120.33 523.95, 1120.10 522.38, 1120.20 519.27 C 1120.29 516.15, 1120.59 514.39, 1121.67 511.16 C 1122.75 507.93, 1123.60 506.14, 1125.60 503.13 C 1127.59 500.12, 1128.93 498.61, 1131.65 496.11 C 1134.37 493.60, 1136.03 492.45, 1139.22 490.61 C 1142.40 488.78, 1144.19 487.98, 1147.58 486.92 C 1150.97 485.86, 1152.81 485.59, 1156.17 485.32 C 1159.53 485.04, 1161.33 485.15, 1164.39 485.55 C 1167.46 485.94, 1169.10 486.36, 1171.49 487.27 C 1173.88 488.19, 1174.63 488.73, 1176.34 490.13 C 1178.04 491.52, 1178.57 492.74, 1180.02 494.25 C 1181.47 495.77, 1181.93 496.50, 1183.58 497.70 C 1185.23 498.90, 1186.24 500.26, 1188.28 500.25 C 1190.31 500.25, 1192.56 499.46, 1193.76 497.67" style="stroke: #ff7a00; fill: #ff7a00; stroke-width: 10"/><path d="M 1246.92,413.48 C 1245.40 414.32, 1244.95 415.03, 1244.32 416.95 C 1243.68 418.86, 1243.32 420.02, 1243.73 423.05 C 1244.14 426.09, 1245.36 427.98, 1246.37 432.12 C 1247.38 436.26, 1247.91 438.73, 1248.79 443.75 C 1249.67 448.76, 1250.02 451.55, 1250.75 457.20 C 1251.49 462.84, 1251.77 465.86, 1252.47 471.97 C 1253.17 478.08, 1253.54 481.34, 1254.25 487.73 C 1254.96 494.12, 1255.26 497.49, 1256.03 503.91 C 1256.79 510.33, 1257.20 513.60, 1258.07 519.83 C 1258.94 526.06, 1259.42 529.20, 1260.37 535.06 C 1261.33 540.92, 1261.84 543.83, 1262.84 549.11 C 1263.84 554.40, 1264.58 557.09, 1265.36 561.49 C 1266.15 565.89, 1265.87 568.16, 1266.77 571.09 C 1267.68 574.03, 1268.71 574.72, 1269.89 576.16 C 1271.07 577.60, 1271.52 578.04, 1272.68 578.29 C 1273.84 578.55, 1274.85 578.29, 1275.69 577.44 C 1276.54 576.59, 1276.72 575.87, 1276.92 574.04 C 1277.11 572.21, 1277.43 571.20, 1276.67 568.29 C 1275.92 565.37, 1274.59 563.59, 1273.15 559.46 C 1271.72 555.33, 1270.83 552.71, 1269.50 547.62 C 1268.16 542.52, 1267.59 539.70, 1266.48 533.97 C 1265.37 528.25, 1264.87 525.13, 1263.95 518.98 C 1263.02 512.83, 1262.61 509.60, 1261.86 503.22 C 1261.12 496.85, 1260.84 493.48, 1260.22 487.11 C 1259.61 480.73, 1259.29 477.47, 1258.79 471.35 C 1258.30 465.24, 1258.10 462.22, 1257.74 456.52 C 1257.39 450.83, 1257.20 447.99, 1257.00 442.87 C 1256.80 437.76, 1256.68 435.22, 1256.75 430.95 C 1256.82 426.69, 1257.61 424.62, 1257.35 421.55 C 1257.08 418.47, 1256.51 417.34, 1255.42 415.58 C 1254.33 413.82, 1253.61 413.18, 1251.91 412.76 C 1250.21 412.34, 1248.44 412.64, 1246.92 413.48" style="stroke: #ff7a00; fill: #ff7a00; stroke-width: 10"/></svg>