{
    "asset" : {
        "generator" : "Khronos glTF Blender I/O v1.0.5",
        "version" : "2.0"
    },
    "scene" : 0,
    "scenes" : [
        {
            "name" : "Scene",
            "nodes" : [
                0
            ]
        }
    ],
    "nodes" : [
        {
            "mesh" : 0,
            "name" : "path24",
            "rotation" : [
                0,
                0.258819043636322,
                0,
                0.9659258127212524
            ],
            "scale" : [
                2.5,
                1,
                2.5
            ],
            "translation" : [
                0,
                0,
                0.045051999390125275
            ]
        }
    ],
    "materials" : [
        {
            "doubleSided" : true,
            "name" : "Material",
            "pbrMetallicRoughness" : {
                "baseColorTexture" : {
                    "index" : 0,
                    "texCoord" : 0
                },
                "metallicFactor" : 0,
                "roughnessFactor" : 0
            }
        }
    ],
    "meshes" : [
        {
            "name" : "path24",
            "primitives" : [
                {
                    "attributes" : {
                        "POSITION" : 0,
                        "NORMAL" : 1
                    },
                    "indices" : 2,
                    "material" : 0
                }
            ]
        }
    ],
    "textures" : [
        {
            "source" : 0
        }
    ],
    "images" : [
        {
            "mimeType" : "image/jpeg",
            "name" : "glitch-image",
            "uri" : "glitch-image.jpg"
        }
    ],
    "accessors" : [
        {
            "bufferView" : 0,
            "componentType" : 5126,
            "count" : 2524,
            "max" : [
                0.06732442229986191,
                0.009999999776482582,
                0.05347053334116936
            ],
            "min" : [
                -0.06803179532289505,
                -0.009999999776482582,
                -0.06098704785108566
            ],
            "type" : "VEC3"
        },
        {
            "bufferView" : 1,
            "componentType" : 5126,
            "count" : 2524,
            "type" : "VEC3"
        },
        {
            "bufferView" : 2,
            "componentType" : 5123,
            "count" : 6468,
            "type" : "SCALAR"
        }
    ],
    "bufferViews" : [
        {
            "buffer" : 0,
            "byteLength" : 30288,
            "byteOffset" : 0
        },
        {
            "buffer" : 0,
            "byteLength" : 30288,
            "byteOffset" : 30288
        },
        {
            "buffer" : 0,
            "byteLength" : 12936,
            "byteOffset" : 60576
        }
    ],
    "buffers" : [
        {
            "byteLength" : 73512,
            "uri" : "test.bin"
        }
    ]
}
